<?xml version="1.0" encoding="utf-8"?>
<!-- Generator: Adobe Illustrator 22.0.1, SVG Export Plug-In . SVG Version: 6.00 Build 0)  -->
<svg version="1.1" id="Capa_1" xmlns="http://www.w3.org/2000/svg" xmlns:xlink="http://www.w3.org/1999/xlink" x="0px" y="0px"
	 viewBox="0 0 480 480" style="enable-background:new 0 0 480 480;" xml:space="preserve">
<style type="text/css">
	.st0{fill:#D45B5B;}
	.st1{fill:#E4D9B3;}
	.st2{fill:#B3D5E4;}
	.st3{fill:#0060FF;}
	.st4{fill:#23374E;}
</style>
<g>
	<path class="st0" d="M92,380.6c0-0.1,0-0.1,0-0.2C92,380.4,92,380.5,92,380.6z"/>
	<path class="st0" d="M92.3,377.8c0.1-0.3,0.2-0.6,0.3-1C92.4,377.1,92.3,377.4,92.3,377.8z"/>
	<path class="st0" d="M93.1,374.9c0.4-1,0.8-1.9,1.4-2.9C93.9,373,93.5,373.9,93.1,374.9z"/>
</g>
<path class="st1" d="M200,263.4c-8.8,8.8-23.2,8.8-32,0s-8.8-23.2,0-32l24-24l-16-16H72v192h20.1c-0.1-0.9-0.2-1.9-0.2-2.8
	c0-0.1,0-0.1,0-0.2c0-0.9,0.1-1.7,0.3-2.6c0.1-0.3,0.2-0.6,0.3-1c0.2-0.6,0.3-1.3,0.6-1.9c0.4-1,0.8-1.9,1.4-2.9l24.1-38.3
	c5-7.9,15.5-10.3,23.4-5.3s10.3,15.5,5.3,23.4c5-7.9,15.5-10.3,23.4-5.3s10.3,15.5,5.3,23.4c5-7.9,15.5-10.3,23.4-5.3
	s10.3,15.5,5.3,23.4c5-7.9,15.5-10.3,23.4-5.3c4.6,2.9,7.3,7.6,7.8,12.7l40.1,40.1l-36-36l36,36c6.6,6.6,17.4,6.6,24,0
	s6.6-17.4,0-24l-44-44l44,44c6.6,6.6,17.4,6.6,24,0s6.6-17.4,0-24l-44-44l44,44c6.6,6.6,17.4,6.6,24,0s6.6-17.4,0-24l-124-124
	L200,263.4z"/>
<polygon class="st2" points="72,175.4 8,175.4 8,399.4 72,399.4 72,383.4 72,191.4 "/>
<path class="st0" d="M92.5,376.8c0.2-0.6,0.3-1.3,0.6-1.9C92.8,375.5,92.7,376.2,92.5,376.8z"/>
<path class="st1" d="M132.5,375.5l14.9-23.6c5-7.9,2.6-18.4-5.3-23.4c-7.9-5-18.4-2.6-23.4,5.3l-24.1,38.3c-0.6,0.9-1,1.9-1.4,2.9
	c-0.2,0.6-0.4,1.2-0.6,1.9c-0.1,0.3-0.2,0.6-0.3,1c-0.2,0.9-0.3,1.7-0.3,2.6c0,0.1,0,0.1,0,0.2c0,0.9,0,1.9,0.2,2.8l0,0
	c0.7,4.8,3.3,9.3,7.7,12.1c7.9,5,18.4,2.6,23.4-5.3l24.1-38.3L132.5,375.5z"/>
<g>
	<path class="st0" d="M92,380.6c0,1,0,1.9,0.2,2.8l0,0C92,382.5,91.9,381.5,92,380.6z"/>
	<path class="st0" d="M92,380.4c0-0.9,0.1-1.7,0.3-2.6C92.1,378.6,92,379.5,92,380.4z"/>
</g>
<g>
	<path class="st1" d="M208,191.4l-16,16l-24,24c-8.8,8.8-8.8,23.2,0,32s23.2,8.8,32,0l24-24l124,124l12,12l48,8v-192H208z"/>
	<path class="st1" d="M228.2,382.7c-7.9-5-18.4-2.6-23.4,5.3l-24.1,38.3c-5,7.9-2.6,18.4,5.3,23.4c7.9,5,18.4,2.6,23.4-5.3
		l24.1-38.3c2.1-3.3,2.8-7.1,2.4-10.7l0,0l0,0C235.4,390.3,232.8,385.6,228.2,382.7z"/>
	<path class="st1" d="M199.5,364.6c-7.9-5-18.4-2.6-23.4,5.3l-24.1,38.3c-5,7.9-2.6,18.4,5.3,23.4l0,0c7.9,5,18.4,2.6,23.4-5.3
		l24.1-38.3C209.8,380.1,207.4,369.6,199.5,364.6z"/>
	<path class="st1" d="M170.7,346.5c-7.9-5-18.4-2.6-23.4,5.3l-24.1,38.3c-5,7.9-2.6,18.4,5.3,23.4c7.9,5,18.4,2.6,23.4-5.3
		l24.1-38.3C181,362,178.7,351.5,170.7,346.5z"/>
</g>
<polygon class="st2" points="408,191.4 408,383.4 408,399.4 472,399.4 472,175.4 408,175.4 "/>
<path class="st3" d="M184,103.4c0,30.9,25.1,56,56,56s56-25.1,56-56s-25.1-56-56-56S184,72.5,184,103.4z M256,87.4
	c0-8.8-7.2-16-16-16s-16,7.2-16,16s7.2,16,16,16s16,7.2,16,16s-7.2,16-16,16v16v-16c-8.8,0-16-7.2-16-16c0,8.8,7.2,16,16,16
	s16-7.2,16-16s-7.2-16-16-16s-16-7.2-16-16s7.2-16,16-16v-16v16C248.8,71.4,256,78.6,256,87.4z"/>
<path class="st1" d="M239.8,406.1l-16,24l28.5,28.5c6.3,6.3,16.6,6.3,22.9,0l0,0c6.7-6.7,6.2-17.8-1.1-23.9L239.8,406.1z"/>
<g>
	<path class="st4" d="M472,167.4h-64c-4.4,0-8,3.6-8,8v8H208c-2.1,0-4.2,0.8-5.7,2.3L192,196.1l-10.3-10.3c-1.5-1.5-3.5-2.3-5.7-2.3
		H80v-8c0-4.4-3.6-8-8-8H8c-4.4,0-8,3.6-8,8v224c0,4.4,3.6,8,8,8h64c4.4,0,8-3.6,8-8v-8h6.1c2,4.4,5.2,8.2,9.4,10.8
		c4.1,2.6,8.7,3.8,13.3,3.8c1.6,0,3.1-0.3,4.7-0.6c1.6,5.9,5.2,11.3,10.8,14.8c4.1,2.6,8.7,3.8,13.3,3.8c1.6,0,3.1-0.3,4.7-0.6
		c1.6,6.2,5.4,11.4,10.8,14.8c4,2.5,8.6,3.9,13.3,3.9c1.6,0,3.1-0.2,4.7-0.5c1.6,5.9,5.2,11.3,10.8,14.8c4.1,2.6,8.7,3.8,13.3,3.8
		c8.3,0,16.4-4.1,21.2-11.7l5.3-8.5l24.9,24.9c4.9,4.9,11.3,7.3,17.7,7.3s12.8-2.4,17.7-7.3c4.5-4.5,7-10.4,7.2-16.8
		c6.1-0.2,12.1-2.6,16.8-7.2c4.5-4.5,7-10.4,7.2-16.8c6.1-0.2,12.1-2.6,16.8-7.2c4.5-4.5,7-10.4,7.2-16.8c6.1-0.2,12.1-2.6,16.8-7.2
		c2.7-2.7,4.7-6,5.9-9.6l40.5,6.8v9.2c0,4.4,3.6,8,8,8h64c4.4,0,8-3.6,8-8v-224C480,171,476.4,167.4,472,167.4z M64,391.4H16v-208
		h48v8v192V391.4z M104.1,388.7c-2-1.3-3.4-3.3-4-5.6c-0.2-1-0.2-2-0.1-3c0-0.3,0.1-0.5,0.1-0.8c0.2-1,0.6-2,1.1-2.9l24.1-38.3
		c0.6-0.9,1.4-1.7,2.2-2.3c0.2-0.2,0.4-0.3,0.6-0.4c0.8-0.5,1.8-1,2.7-1.2c0.1,0,0.3,0,0.4,0c0.9-0.2,1.7-0.2,2.6-0.1
		c0.3,0,0.6,0.1,0.9,0.1c1,0.2,2,0.5,3,1.1c4.2,2.6,5.4,8.2,2.8,12.4l-24.1,38.3C113.8,390.1,108.3,391.3,104.1,388.7z M132.8,406.8
		c-4.2-2.6-5.4-8.2-2.8-12.4l9.2-14.7l0,0l14.9-23.6c1.7-2.7,4.6-4.2,7.6-4.2c1.6,0,3.3,0.4,4.8,1.4c2,1.3,3.4,3.3,4,5.6
		s0.1,4.7-1.2,6.8L145.2,404C142.5,408.2,137,409.4,132.8,406.8z M161.5,424.9c-2-1.3-3.4-3.3-4-5.6c-0.5-2.3-0.1-4.7,1.2-6.8
		l24.1-38.3c2.6-4.2,8.2-5.5,12.4-2.8c4.2,2.6,5.4,8.2,2.8,12.4L173.9,422c-1.3,2-3.3,3.4-5.6,4C166,426.5,163.6,426.1,161.5,424.9z
		 M202.6,440.1c-2.6,4.2-8.2,5.5-12.4,2.8c-4.2-2.6-5.4-8.2-2.8-12.4l24.1-38.3c0,0,0,0,0,0c1.3-2,3.3-3.4,5.6-4
		c0.7-0.2,1.3-0.2,2-0.2c1.7,0,3.3,0.5,4.8,1.4c2,1.3,3.4,3.3,4,5.6c0.5,2.3,0.1,4.7-1.2,6.8L202.6,440.1z M270.3,453.7
		c-3.5,3.5-9.2,3.5-12.7,0l-27.4-27.4l9.8-15.6l30.3,30.3c1.7,1.7,2.6,3.9,2.6,6.3S272,452,270.3,453.7z M342.3,381.7
		c-3.5,3.5-9.2,3.5-12.7,0l-44-44l-11.3,11.3l44,44c1.7,1.7,2.6,3.9,2.6,6.3s-0.9,4.6-2.6,6.3c-3.5,3.5-9.2,3.5-12.7,0l-44-44
		l-11.3,11.3l44,44c1.7,1.7,2.6,3.9,2.6,6.3s-0.9,4.6-2.6,6.3c-3.5,3.5-9.2,3.5-12.7,0l-36-36l0,0l-2.2-2.2c0,0,0,0,0-0.1
		c-1.5-6.5-5.4-12-11-15.6c-5.4-3.4-11.7-4.5-18-3.3c-1.6-5.9-5.2-11.3-10.8-14.8c-5.6-3.5-12-4.5-18-3.3
		c-1.6-6.1-5.4-11.4-10.8-14.8c-5.6-3.5-12-4.5-18-3.3c-1.6-5.9-5.2-11.3-10.8-14.8c-11.6-7.3-27.1-3.8-34.4,7.8l-24.1,38.3
		c-0.8,1.3-1.4,2.6-2,4c-0.3,0.8-0.5,1.6-0.7,2.3c-0.1,0.4-0.3,0.9-0.4,1.3H80v-176h92.7l8,8l-18.3,18.3
		c-11.9,11.9-11.9,31.4,0,43.3c11.9,11.9,31.4,11.9,43.3,0l18.3-18.3l118.3,118.3c1.7,1.7,2.6,3.9,2.6,6.3S344,380,342.3,381.7z
		 M363.8,367.9l-10.2-10.2l-124-124c-3.1-3.1-8.2-3.1-11.3,0l-24,24c-5.5,5.5-15.2,5.5-20.7,0c-0.7-0.7-1.3-1.5-1.9-2.3
		c-0.1-0.2-0.2-0.4-0.3-0.6c-0.4-0.6-0.7-1.2-1-1.9c-0.1-0.2-0.1-0.4-0.2-0.6c-0.3-0.7-0.5-1.4-0.6-2.1c0-0.3,0-0.5-0.1-0.8
		c-0.2-1.3-0.2-2.7,0-4.1c0-0.3,0-0.5,0.1-0.8c0.1-0.7,0.4-1.4,0.6-2.2c0.1-0.2,0.1-0.4,0.2-0.6c0.3-0.7,0.6-1.3,1-1.9
		c0.1-0.2,0.2-0.4,0.3-0.6c0.5-0.8,1.1-1.6,1.9-2.3l24-24l13.7-13.7H400V374L363.8,367.9z M464,391.4h-48v-8v-192v-8h48V391.4z"/>
	<path class="st4" d="M240,167.4c35.3,0,64-28.7,64-64s-28.7-64-64-64s-64,28.7-64,64S204.7,167.4,240,167.4z M288,103.4
		c0,23.7-17.3,43.4-40,47.3v-8.8c9.3-3.3,16-12.1,16-22.5c0-13.2-10.8-24-24-24c-4.4,0-8-3.6-8-8s3.6-8,8-8s8,3.6,8,8h16
		c0-10.4-6.7-19.2-16-22.5v-8.8C270.7,60,288,79.7,288,103.4z M232,56.1v8.8c-9.3,3.3-16,12.1-16,22.5c0,13.2,10.8,24,24,24
		c4.4,0,8,3.6,8,8s-3.6,8-8,8s-8-3.6-8-8h-16c0,10.4,6.7,19.2,16,22.5v8.8c-22.7-3.8-40-23.5-40-47.3S209.3,60,232,56.1z"/>
	<path class="st4" d="M165.4,28.2c-5,3-9.8,6.3-14.3,9.9l9.9,12.6c4-3.2,8.3-6.1,12.7-8.8L165.4,28.2z"/>
	<path class="st4" d="M98.3,125.6l15.7,2.8c0.9-5.1,2.2-10.1,3.7-15l-15.3-4.7C100.7,114.2,99.3,119.9,98.3,125.6z"/>
	<path class="st4" d="M149.4,61l-11.3-11.3c-4.1,4.1-8,8.5-11.5,13l12.6,9.9C142.3,68.5,145.8,64.6,149.4,61z"/>
	<path class="st4" d="M108.6,92.4l14.6,6.6c2.1-4.7,4.5-9.3,7.2-13.7L116.7,77C113.7,82,111,87.2,108.6,92.4z"/>
	<path class="st4" d="M248.6,7.7l-0.9,16c5.2,0.3,10.3,0.9,15.4,1.8l2.9-15.8C260.2,8.7,254.4,8,248.6,7.7z"/>
	<path class="st4" d="M299.1,20c-5.3-2.4-10.8-4.5-16.3-6.2L278,29.2c4.9,1.5,9.8,3.4,14.5,5.5L299.1,20z"/>
	<path class="st4" d="M314.5,28.1l-8.3,13.7c4.4,2.7,8.7,5.6,12.7,8.8l9.9-12.6C324.2,34.5,319.4,31.1,314.5,28.1z"/>
	<path class="st4" d="M381.7,125.5c-1-5.7-2.4-11.4-4.2-16.9l-15.3,4.8c1.5,4.9,2.8,10,3.7,15L381.7,125.5z"/>
	<path class="st4" d="M349.6,85.2c2.7,4.4,5.1,9,7.2,13.7l14.6-6.6c-2.4-5.3-5.1-10.4-8.1-15.4L349.6,85.2z"/>
	<path class="st4" d="M197,13.9c-5.5,1.7-11,3.8-16.3,6.2l6.6,14.6c4.7-2.1,9.5-4,14.5-5.5L197,13.9z"/>
	<path class="st4" d="M231.2,7.7c-5.8,0.4-11.6,1.1-17.3,2.1l2.9,15.7c5-0.9,10.2-1.5,15.4-1.9L231.2,7.7z"/>
	<path class="st4" d="M330.5,60.9c3.6,3.6,7.1,7.5,10.3,11.6l12.6-9.9c-3.6-4.6-7.5-8.9-11.5-13L330.5,60.9z"/>
</g>
</svg>
