<?xml version="1.0" encoding="utf-8"?>
<!-- Generator: Adobe Illustrator 22.0.1, SVG Export Plug-In . SVG Version: 6.00 Build 0)  -->
<svg version="1.1" id="Capa_1" xmlns="http://www.w3.org/2000/svg" xmlns:xlink="http://www.w3.org/1999/xlink" x="0px" y="0px"
	 viewBox="0 0 480 480" style="enable-background:new 0 0 480 480;" xml:space="preserve">
<style type="text/css">
	.st0{fill:#0060FF;}
	.st1{fill:#B3D5E4;}
	.st2{fill:#D45B5B;}
	.st3{fill:#FFFFFF;}
	.st4{fill:#E4D9B3;}
	.st5{fill:#23374E;}
</style>
<g>
	<path class="st0" d="M201.6,208.6c0.7,0.3,1.4,0.5,2.1,0.8c-0.1,0-0.2-0.1-0.4-0.2C202.8,209,202.2,208.8,201.6,208.6z"/>
	<path class="st0" d="M178,195.3c-0.1-0.1-0.2-0.2-0.3-0.2C177.8,195.2,177.9,195.3,178,195.3z"/>
	<path class="st0" d="M186,200.8c-0.3-0.2-0.6-0.3-0.9-0.5C185.5,200.4,185.7,200.6,186,200.8z"/>
	<path class="st0" d="M294.8,200.3c-0.3,0.2-0.6,0.3-0.9,0.5C294.3,200.6,294.5,200.4,294.8,200.3z"/>
	<path class="st0" d="M302.3,195.1c-0.1,0.1-0.2,0.2-0.3,0.2C302.1,195.3,302.2,195.2,302.3,195.1z"/>
	<path class="st0" d="M194.8,205.5c-0.6-0.3-1.1-0.5-1.7-0.8C193.7,205,194.2,205.3,194.8,205.5z"/>
	<path class="st0" d="M286.9,204.8c-0.5,0.3-1.1,0.5-1.7,0.8C285.8,205.3,286.3,205,286.9,204.8z"/>
	<path class="st0" d="M249.4,215.6c0.3,0,0.5,0,0.8-0.1c-0.1,0-0.3,0-0.4,0C249.7,215.5,249.6,215.5,249.4,215.6z"/>
	<path class="st0" d="M267.6,212.2c0.6-0.2,1.2-0.3,1.9-0.5c-0.4,0.1-0.8,0.2-1.2,0.3C268.1,212.1,267.8,212.1,267.6,212.2z"/>
	<path class="st0" d="M276.3,209.4c0.7-0.3,1.4-0.5,2.1-0.8c-0.6,0.2-1.2,0.4-1.8,0.6C276.5,209.3,276.4,209.3,276.3,209.4z"/>
	<path class="st0" d="M258.7,214.3c0.5-0.1,0.9-0.2,1.4-0.3c-0.3,0-0.5,0.1-0.8,0.1C259.1,214.2,258.9,214.2,258.7,214.3z"/>
	<path class="st0" d="M229.8,215.5c0.3,0,0.5,0,0.8,0.1c-0.1,0-0.3,0-0.4,0C230,215.5,229.9,215.5,229.8,215.5z"/>
	<path class="st0" d="M210.5,211.7c0.6,0.2,1.2,0.3,1.9,0.5c-0.2-0.1-0.5-0.1-0.7-0.2C211.3,211.9,210.9,211.8,210.5,211.7z"/>
	<path class="st0" d="M219.9,214c0.5,0.1,0.9,0.2,1.4,0.3c-0.2,0-0.4-0.1-0.6-0.1C220.4,214.1,220.2,214.1,219.9,214z"/>
	<path class="st0" d="M253.3,215c1.8-0.2,3.6-0.4,5.3-0.8c-1.4,0.3-2.8,0.4-4.2,0.6C254.1,214.9,253.7,215,253.3,215z"/>
	<path class="st0" d="M211.7,212c0.2,0.1,0.5,0.1,0.7,0.2c0.7,0.2,1.4,0.3,2,0.5C213.5,212.5,212.6,212.3,211.7,212z"/>
	<path class="st0" d="M254.5,214.9c1.4-0.2,2.8-0.3,4.2-0.6c0.2,0,0.4-0.1,0.6-0.1C257.7,214.4,256.1,214.7,254.5,214.9z"/>
	<path class="st0" d="M221.3,214.3c1.8,0.3,3.5,0.5,5.3,0.8c-0.4,0-0.8-0.1-1.1-0.2C224.1,214.7,222.7,214.5,221.3,214.3z"/>
	<path class="st0" d="M265.6,212.7c0.7-0.2,1.4-0.3,2-0.5c0.2-0.1,0.5-0.1,0.7-0.2C267.4,212.3,266.5,212.5,265.6,212.7z"/>
	<path class="st0" d="M240,216c3.2,0,6.3-0.2,9.4-0.4c0.1,0,0.3,0,0.4,0C246.6,215.8,243.3,216,240,216z"/>
	<path class="st0" d="M263.6,213.2c1.3-0.3,2.7-0.6,4-1c-0.7,0.2-1.4,0.3-2,0.5C264.9,212.9,264.3,213,263.6,213.2z"/>
	<path class="st0" d="M212.4,212.2c1.3,0.4,2.6,0.7,4,1c-0.7-0.2-1.3-0.3-2-0.5C213.7,212.5,213.1,212.4,212.4,212.2z"/>
	<path class="st0" d="M275.8,209.6c0.2-0.1,0.3-0.1,0.5-0.2c0.1,0,0.2-0.1,0.4-0.2C276.4,209.3,276.1,209.4,275.8,209.6z"/>
	<path class="st0" d="M197.9,207c-0.5-0.2-0.9-0.5-1.4-0.7C197,206.6,197.4,206.8,197.9,207z"/>
	<path class="st0" d="M273.1,210.5c1.1-0.4,2.1-0.7,3.1-1.1c-0.2,0.1-0.3,0.1-0.5,0.2C274.9,209.9,274,210.2,273.1,210.5z"/>
	<path class="st0" d="M230.6,215.6c3.1,0.3,6.3,0.4,9.4,0.4c-3.3,0-6.6-0.2-9.8-0.5C230.3,215.5,230.4,215.5,230.6,215.6z"/>
	<path class="st0" d="M283.5,206.4c-0.5,0.2-0.9,0.5-1.4,0.7C282.6,206.8,283,206.6,283.5,206.4z"/>
	<path class="st0" d="M220.7,214.1c0.2,0,0.4,0.1,0.6,0.1c1.4,0.3,2.8,0.4,4.2,0.6C223.9,214.7,222.3,214.4,220.7,214.1z"/>
	<path class="st0" d="M203.7,209.4c1,0.4,2.1,0.8,3.1,1.1c-0.9-0.3-1.7-0.6-2.6-1C204.1,209.5,203.9,209.4,203.7,209.4z"/>
	<path class="st0" d="M249.4,215.6c-3.1,0.3-6.3,0.4-9.4,0.4C243.2,216,246.3,215.8,249.4,215.6z"/>
	<path class="st0" d="M203.4,209.2c0.1,0,0.2,0.1,0.4,0.2c0.2,0.1,0.3,0.1,0.5,0.2C203.9,209.4,203.6,209.3,203.4,209.2z"/>
	<path class="st0" d="M240,216c-3.2,0-6.3-0.2-9.4-0.4C233.7,215.8,236.8,216,240,216z"/>
	<path class="st0" d="M200.3,208c0.4,0.2,0.9,0.4,1.3,0.6c0.6,0.2,1.2,0.4,1.8,0.6C202.3,208.8,201.3,208.4,200.3,208z"/>
	<path class="st0" d="M276.6,209.2c0.6-0.2,1.2-0.4,1.8-0.6c0.4-0.2,0.9-0.4,1.3-0.6C278.7,208.4,277.7,208.8,276.6,209.2z"/>
	<path class="st0" d="M278.4,208.6c1.2-0.5,2.5-1,3.7-1.5c-0.8,0.3-1.6,0.6-2.4,1C279.3,208.2,278.9,208.4,278.4,208.6z"/>
	<path class="st0" d="M227.5,215.2c0.8,0.1,1.5,0.2,2.3,0.3c0.1,0,0.3,0,0.4,0C229.3,215.4,228.4,215.3,227.5,215.2z"/>
	<path class="st0" d="M197.9,207c1.2,0.5,2.5,1,3.7,1.5c-0.4-0.2-0.9-0.4-1.3-0.6C199.5,207.7,198.7,207.4,197.9,207z"/>
	<path class="st0" d="M176,193.9v-0.1c-1.8-1.4-3.6-2.8-5.4-4.4l0,0c2.3,2,4.6,3.9,7,5.8c-0.2-0.1-0.3-0.3-0.5-0.4
		C176.8,194.4,176.4,194.2,176,193.9z"/>
	<path class="st0" d="M269.5,211.7c1.2-0.4,2.5-0.8,3.7-1.2c-0.6,0.2-1.3,0.4-2,0.6C270.6,211.3,270,211.5,269.5,211.7z"/>
	<path class="st0" d="M206.9,210.5c1.2,0.4,2.4,0.8,3.7,1.2c-0.6-0.2-1.1-0.4-1.7-0.6C208.2,210.9,207.5,210.7,206.9,210.5z"/>
	<path class="st0" d="M240,8c-57.4,0-104,46.6-104,104c0,30.8,13.4,58.3,34.6,77.4l0,0c1.7,1.5,3.5,3,5.4,4.4v-23.3
		c0-11.5,5.8-22.3,15.3-28.6c5.7-3.8,12.3-5.8,19.1-5.8H240c-17,0-48-21.5-48-48s8-56,48-56s48,29.5,48,56s-31,48-48,48h29.6
		c6.8,0,13.4,2,19.1,5.8c9.6,6.4,15.3,17.1,15.3,28.6v23.3c1.8-1.4,3.6-2.8,5.4-4.4l0,0c21.2-19,34.6-46.6,34.6-77.4
		c0-26.7-10.1-50.9-26.6-69.4l0,0l0,0C298.3,21.4,270.8,8,240,8z"/>
	<path class="st0" d="M304,193.7v0.1c-0.4,0.3-0.8,0.6-1.2,0.9c-0.2,0.1-0.3,0.3-0.5,0.4c2.4-1.8,4.8-3.7,7-5.8l0,0
		C307.6,190.9,305.8,192.3,304,193.7z"/>
	<path class="st0" d="M300.6,196.3c0.5-0.3,1-0.6,1.4-1c0.1-0.1,0.2-0.2,0.3-0.2c0.2-0.1,0.3-0.3,0.5-0.4
		C302.1,195.3,301.3,195.8,300.6,196.3z"/>
	<path class="st0" d="M295.5,199.8c-0.2,0.2-0.5,0.3-0.7,0.5c2.5-1.5,4.9-3.2,7.2-4.9c-0.5,0.3-1,0.6-1.4,1
		C298.9,197.5,297.3,198.7,295.5,199.8z"/>
	<path class="st0" d="M268.3,212c0.4-0.1,0.8-0.2,1.2-0.3c0.6-0.2,1.1-0.4,1.7-0.6C270.2,211.4,269.3,211.7,268.3,212z"/>
	<path class="st0" d="M283.5,206.4c0.6-0.3,1.1-0.6,1.7-0.8c-0.2,0.1-0.4,0.2-0.6,0.3C284.3,206,283.9,206.2,283.5,206.4z"/>
	<path class="st0" d="M284.6,205.8c0.2-0.1,0.4-0.2,0.6-0.3c0.6-0.3,1.1-0.5,1.7-0.8c0.3-0.2,0.6-0.4,1-0.6
		C286.8,204.8,285.7,205.3,284.6,205.8z"/>
	<path class="st0" d="M292.7,201.5c0.4-0.2,0.8-0.4,1.2-0.7c0.3-0.2,0.6-0.3,0.9-0.5c0.2-0.2,0.5-0.3,0.7-0.5
		C294.6,200.4,293.7,200.9,292.7,201.5z"/>
	<path class="st0" d="M287.8,204.2c-0.3,0.2-0.6,0.4-1,0.6c2.4-1.2,4.8-2.6,7.1-4c-0.4,0.2-0.8,0.5-1.2,0.7
		C291.1,202.4,289.5,203.3,287.8,204.2z"/>
	<path class="st0" d="M260.1,214c1.2-0.2,2.4-0.5,3.6-0.8c-0.5,0.1-1,0.2-1.4,0.3C261.5,213.7,260.8,213.9,260.1,214z"/>
	<path class="st0" d="M250.2,215.5c1-0.1,2.1-0.3,3.1-0.4c-0.3,0-0.5,0.1-0.8,0.1C251.8,215.2,251,215.4,250.2,215.5z"/>
	<path class="st0" d="M208.8,211.1c0.6,0.2,1.1,0.4,1.7,0.6c0.4,0.1,0.8,0.2,1.2,0.3C210.7,211.7,209.8,211.4,208.8,211.1z"/>
	<path class="st0" d="M249.8,215.5c0.1,0,0.3,0,0.4,0c0.8-0.1,1.5-0.2,2.3-0.3C251.6,215.3,250.7,215.4,249.8,215.5z"/>
	<path class="st0" d="M194.8,205.5c0.6,0.3,1.1,0.6,1.7,0.8c-0.4-0.2-0.8-0.4-1.1-0.6C195.2,205.7,195,205.6,194.8,205.5z"/>
	<path class="st0" d="M216.4,213.2c1.2,0.3,2.4,0.6,3.6,0.8c-0.7-0.1-1.4-0.4-2.1-0.5C217.3,213.4,216.8,213.3,216.4,213.2z"/>
	<path class="st0" d="M192.2,204.2c0.3,0.2,0.6,0.4,1,0.6c0.5,0.3,1.1,0.5,1.7,0.8c0.2,0.1,0.4,0.2,0.6,0.3
		C194.3,205.3,193.2,204.8,192.2,204.2z"/>
	<path class="st0" d="M187.3,201.5c-0.4-0.2-0.8-0.4-1.2-0.7c2.3,1.4,4.7,2.7,7.1,4c-0.3-0.2-0.6-0.4-1-0.6
		C190.5,203.3,188.9,202.4,187.3,201.5z"/>
	<path class="st0" d="M226.7,215c1,0.1,2.1,0.3,3.1,0.4c-0.8-0.1-1.5-0.2-2.3-0.3C227.2,215.1,226.9,215.1,226.7,215z"/>
	<path class="st0" d="M217.8,213.5c0.7,0.2,1.4,0.4,2.1,0.5c0.3,0,0.5,0.1,0.8,0.1C219.7,214,218.8,213.7,217.8,213.5z"/>
	<path class="st0" d="M179.4,196.3c-0.5-0.3-1-0.6-1.4-1c2.3,1.7,4.7,3.4,7.2,4.9c-0.2-0.2-0.5-0.3-0.7-0.5
		C182.7,198.7,181.1,197.5,179.4,196.3z"/>
	<path class="st0" d="M177.2,194.7c0.2,0.1,0.3,0.3,0.5,0.4c0.1,0.1,0.2,0.2,0.3,0.2c0.5,0.3,1,0.6,1.4,1
		C178.7,195.8,177.9,195.3,177.2,194.7z"/>
	<path class="st0" d="M259.3,214.1c0.3,0,0.5-0.1,0.8-0.1c0.7-0.1,1.4-0.4,2.1-0.5C261.2,213.7,260.3,214,259.3,214.1z"/>
	<path class="st0" d="M184.5,199.8c0.2,0.2,0.5,0.3,0.7,0.5c0.3,0.2,0.6,0.3,0.9,0.5c0.4,0.2,0.8,0.5,1.2,0.7
		C186.3,200.9,185.4,200.4,184.5,199.8z"/>
	<path class="st0" d="M304,193.9v-0.1c-0.4,0.3-0.8,0.7-1.2,1C303.2,194.4,303.6,194.2,304,193.9z"/>
	<path class="st0" d="M225.5,214.9c0.4,0.1,0.8,0.1,1.1,0.2c0.3,0,0.5,0.1,0.8,0.1C226.8,215.1,226.2,215,225.5,214.9z"/>
	<path class="st0" d="M214.4,212.7c0.7,0.2,1.3,0.4,2,0.5c0.5,0.1,1,0.2,1.4,0.3C216.7,213.3,215.5,213,214.4,212.7z"/>
	<path class="st0" d="M300.6,196.3c-1.6,1.2-3.3,2.4-5,3.4C297.3,198.7,298.9,197.5,300.6,196.3z"/>
	<path class="st0" d="M204.2,209.6c0.9,0.3,1.7,0.7,2.6,1c0.6,0.2,1.3,0.4,2,0.6C207.3,210.6,205.7,210.1,204.2,209.6z"/>
	<path class="st0" d="M252.5,215.2c0.3,0,0.5-0.1,0.8-0.1c0.4,0,0.8-0.1,1.1-0.2C253.8,215,253.2,215.1,252.5,215.2z"/>
	<path class="st0" d="M187.3,201.5c1.6,1,3.2,1.9,4.9,2.7C190.5,203.3,188.9,202.4,187.3,201.5z"/>
	<path class="st0" d="M262.2,213.5c0.5-0.1,1-0.2,1.4-0.3c0.7-0.2,1.3-0.3,2-0.5C264.5,213,263.3,213.3,262.2,213.5z"/>
	<path class="st0" d="M292.7,201.5c-1.6,1-3.2,1.9-4.9,2.7C289.5,203.3,291.1,202.4,292.7,201.5z"/>
</g>
<path class="st1" d="M252.5,215.2c0.7-0.1,1.3-0.2,1.9-0.3c1.6-0.2,3.2-0.4,4.8-0.7c1-0.2,1.9-0.4,2.9-0.6c1.1-0.2,2.3-0.5,3.4-0.8
	c0.9-0.2,1.8-0.4,2.7-0.7c1-0.3,1.9-0.6,2.9-0.9c1.5-0.5,3.1-1,4.6-1.6c0.3-0.1,0.6-0.2,0.9-0.3c1-0.4,2.1-0.8,3.1-1.2
	c1.7-0.7,3.3-1.4,4.9-2.2c1.1-0.5,2.2-1,3.2-1.6c1.7-0.9,3.3-1.8,4.9-2.7c0.9-0.6,1.9-1.1,2.8-1.7c1.7-1.1,3.4-2.3,5-3.4
	c0.7-0.5,1.5-1,2.2-1.6c0.4-0.3,0.8-0.7,1.2-1v-23.3c0-11.5-5.8-22.3-15.3-28.6c-5.6-3.8-12.3-5.8-19.1-5.8H240l16,40l-16,16l-16-16
	l16-40h-29.6c-6.8,0-13.4,2-19.1,5.8c-9.6,6.4-15.3,17.1-15.3,28.6v23.3c0.4,0.3,0.8,0.7,1.2,1c0.7,0.5,1.5,1.1,2.2,1.6
	c1.6,1.2,3.3,2.4,5,3.4c0.9,0.6,1.9,1.1,2.8,1.7c1.6,1,3.2,1.9,4.9,2.7c1.1,0.6,2.1,1.1,3.2,1.6c1.6,0.8,3.2,1.5,4.9,2.2
	c1,0.4,2,0.8,3.1,1.2c0.3,0.1,0.6,0.2,0.9,0.3c1.5,0.6,3,1.1,4.6,1.6c1,0.3,1.9,0.6,2.9,0.9c0.9,0.3,1.8,0.5,2.7,0.7
	c1.1,0.3,2.2,0.6,3.4,0.8c1,0.2,1.9,0.4,2.9,0.6c1.6,0.3,3.2,0.5,4.8,0.7c0.6,0.1,1.3,0.2,1.9,0.3c0.9,0.1,1.8,0.3,2.7,0.3
	c3.2,0.3,6.5,0.5,9.8,0.5s6.6-0.2,9.8-0.5C250.7,215.4,251.6,215.3,252.5,215.2z"/>
<g>
	<path class="st2" d="M195.4,205.8c0.4,0.2,0.8,0.4,1.1,0.6c0.5,0.2,0.9,0.5,1.4,0.7c0.8,0.3,1.6,0.6,2.4,1
		C198.6,207.3,197,206.6,195.4,205.8z"/>
	<path class="st2" d="M179.4,196.3c1.7,1.2,3.3,2.4,5,3.4C182.8,198.7,181.1,197.5,179.4,196.3z"/>
	<path class="st2" d="M279.7,208c0.8-0.3,1.6-0.6,2.4-1c0.5-0.2,0.9-0.5,1.4-0.7c0.4-0.2,0.8-0.4,1.1-0.6
		C283,206.6,281.4,207.3,279.7,208z"/>
	<path class="st2" d="M271.2,211.1c0.6-0.2,1.3-0.4,2-0.6c0.9-0.3,1.7-0.6,2.6-1C274.3,210.1,272.7,210.6,271.2,211.1z"/>
	<path class="st2" d="M177.2,194.7c-0.4-0.3-0.8-0.7-1.2-1v0.1C176.4,194.2,176.8,194.4,177.2,194.7z"/>
</g>
<path class="st3" d="M288,88l-40-24c-8,24-56,24-56,24c0,26.5,31,48,48,48S288,114.5,288,88z"/>
<path class="st1" d="M248,64l40,24c0-26.5-8-56-48-56s-48,29.5-48,56C192,88,240,88,248,64z"/>
<g>
	<polygon class="st0" points="240,192 256,176 240,136 224,176 	"/>
	<path class="st0" d="M387.3,470.1c-2,0.4-4,0.7-6,0.9C383.3,470.8,385.3,470.5,387.3,470.1z"/>
	<path class="st0" d="M325.9,463c-0.5-0.2-0.9-0.5-1.4-0.7C325,462.6,325.4,462.8,325.9,463z"/>
	<path class="st0" d="M354.7,471c-2-0.3-4-0.5-6-0.9C350.7,470.5,352.7,470.8,354.7,471z"/>
	<path class="st0" d="M377.8,471.5c-3.2,0.3-6.5,0.5-9.8,0.5C371.3,472,374.6,471.8,377.8,471.5z"/>
	<path class="st0" d="M396.3,468c-1.5,0.4-3.1,0.8-4.7,1.2C393.2,468.8,394.8,468.4,396.3,468z"/>
	<path class="st0" d="M368,472c-3.3,0-6.6-0.2-9.8-0.5C361.4,471.8,364.7,472,368,472z"/>
	<path class="st0" d="M404.6,465.2c-1.2,0.4-2.3,0.9-3.5,1.3C402.3,466.1,403.5,465.7,404.6,465.2z"/>
	<path class="st0" d="M334.9,466.5c-1.2-0.4-2.3-0.8-3.5-1.3C332.5,465.7,333.7,466.1,334.9,466.5z"/>
	<path class="st0" d="M344.4,469.2c-1.6-0.4-3.1-0.8-4.7-1.2C341.2,468.4,342.8,468.8,344.4,469.2z"/>
	<path class="st0" d="M411.5,462.4c-0.5,0.2-0.9,0.5-1.4,0.7C410.6,462.8,411,462.6,411.5,462.4z"/>
	<path class="st0" d="M358.2,471.5c-1.2-0.1-2.3-0.3-3.5-0.5C355.8,471.2,357,471.4,358.2,471.5z"/>
	<path class="st0" d="M381.3,471c-1.2,0.2-2.3,0.3-3.5,0.5C379,471.4,380.2,471.2,381.3,471z"/>
	<path class="st0" d="M410.1,463c-1.8,0.8-3.6,1.5-5.5,2.2C406.5,464.5,408.3,463.8,410.1,463z"/>
	<path class="st0" d="M401.1,466.5c-1.6,0.5-3.2,1-4.8,1.5C397.9,467.5,399.5,467,401.1,466.5z"/>
	<path class="st0" d="M391.6,469.2c-1.4,0.3-2.9,0.7-4.3,0.9C388.8,469.9,390.2,469.5,391.6,469.2z"/>
	<path class="st0" d="M339.7,468c-1.6-0.5-3.2-0.9-4.8-1.5C336.5,467,338.1,467.5,339.7,468z"/>
	<path class="st0" d="M348.7,470.1c-1.5-0.3-2.9-0.6-4.3-0.9C345.8,469.5,347.2,469.9,348.7,470.1z"/>
	<path class="st0" d="M331.4,465.2c-1.8-0.7-3.7-1.4-5.5-2.2C327.7,463.8,329.5,464.5,331.4,465.2z"/>
	<path class="st0" d="M368,264c-57.4,0-104,46.6-104,104c0,41.9,24.8,77.9,60.5,94.4c-7.3-3.4-14.2-7.6-20.5-12.5v-23.4
		c0-11.5,5.8-22.3,15.3-28.6c5.7-3.8,12.3-5.8,19.1-5.8H368c-17,0-48-21.5-48-48s8-56,48-56s48,29.5,48,56s-31,48-48,48h29.6
		c6.8,0,13.4,2,19.1,5.8c9.6,6.4,15.3,17.1,15.3,28.6v23.4c-6.3,4.9-13.2,9.1-20.5,12.5c35.7-16.5,60.5-52.5,60.5-94.4
		C472,310.6,425.4,264,368,264z"/>
</g>
<g>
	<path class="st1" d="M432,426.4c0-11.5-5.8-22.3-15.3-28.6c-5.7-3.8-12.3-5.8-19.1-5.8H368l16,40l-16,16l-16-16l16-40h-29.6
		c-6.8,0-13.4,2-19.1,5.8c-9.6,6.4-15.3,17.1-15.3,28.6v23.4c6.3,4.9,13.2,9.1,20.5,12.5c0.5,0.2,0.9,0.5,1.4,0.7
		c1.8,0.8,3.6,1.5,5.5,2.2c1.2,0.4,2.3,0.9,3.5,1.3c1.6,0.5,3.2,1,4.8,1.5c1.5,0.4,3.1,0.8,4.7,1.2c1.4,0.3,2.9,0.7,4.3,0.9
		c2,0.4,4,0.7,6,0.9c1.2,0.2,2.3,0.3,3.5,0.5c3.2,0.3,6.5,0.5,9.8,0.5s6.6-0.2,9.8-0.5c1.2-0.1,2.3-0.3,3.5-0.5c2-0.3,4-0.5,6-0.9
		c1.5-0.3,2.9-0.6,4.3-0.9c1.6-0.4,3.1-0.8,4.7-1.2c1.6-0.5,3.2-0.9,4.8-1.5c1.2-0.4,2.3-0.8,3.5-1.3c1.8-0.7,3.7-1.4,5.5-2.2
		c0.5-0.2,0.9-0.5,1.4-0.7c7.3-3.4,14.2-7.6,20.5-12.5L432,426.4L432,426.4z"/>
	<path class="st1" d="M376,320l40,24c0-26.5-8-56-48-56s-48,29.5-48,56C320,344,368,344,376,320z"/>
</g>
<path class="st3" d="M416,344l-40-24c-8,24-56,24-56,24c0,26.5,31,48,48,48S416,370.5,416,344z"/>
<g>
	<polygon class="st0" points="368,448 384,432 368,392 352,432 	"/>
	<path class="st0" d="M110.1,401.3c-2.9,1.3-5.8,2.5-8.8,3.5C104.3,403.9,107.2,402.7,110.1,401.3z"/>
	<path class="st0" d="M40,376c0-22.1,17.9-40,40-40c-13.3,0-24-10.7-24-24s10.7-24,24-24s24,10.7,24,24s-10.7,24-24,24
		c22.1,0,40,17.9,40,40v19.9c-2.6,1.7-5.3,3.2-8.1,4.6c23.7-11.8,40.1-36.2,40.1-64.5c0-39.8-32.2-72-72-72S8,296.2,8,336
		c0,28.3,16.4,52.7,40.1,64.5c-2.8-1.4-5.5-2.9-8.1-4.6V376z"/>
	<path class="st0" d="M58.7,404.8c-3-0.9-6-2.1-8.8-3.5C52.8,402.7,55.7,403.9,58.7,404.8z"/>
	<path class="st0" d="M101.2,404.8c-3,0.9-6,1.6-9.2,2.1C95.2,406.4,98.3,405.7,101.2,404.8z"/>
	<path class="st0" d="M80,408c3.3,0,6.5-0.3,9.7-0.7C86.5,407.7,83.3,408,80,408z"/>
	<path class="st0" d="M80,408c-3.3,0-6.5-0.3-9.7-0.7C73.5,407.7,76.7,408,80,408z"/>
	<path class="st0" d="M67.9,406.9c-3.1-0.5-6.2-1.2-9.2-2.1C61.7,405.7,64.8,406.4,67.9,406.9z"/>
</g>
<circle class="st4" cx="80" cy="312" r="24"/>
<g>
	<path class="st2" d="M101.3,404.8C101.3,404.8,101.2,404.8,101.3,404.8C101.2,404.8,101.3,404.8,101.3,404.8z"/>
	<path class="st2" d="M92.1,406.9c-0.8,0.1-1.6,0.2-2.3,0.4C90.5,407.2,91.3,407,92.1,406.9z"/>
	<path class="st2" d="M111.9,400.5c-0.6,0.3-1.2,0.6-1.8,0.9C110.7,401.1,111.3,400.8,111.9,400.5z"/>
	<path class="st2" d="M70.3,407.3c-0.8-0.1-1.6-0.2-2.3-0.4C68.7,407,69.5,407.2,70.3,407.3z"/>
	<path class="st2" d="M49.9,401.3c-0.6-0.3-1.2-0.6-1.8-0.9C48.7,400.8,49.3,401.1,49.9,401.3z"/>
	<path class="st2" d="M58.8,404.8C58.8,404.8,58.7,404.8,58.8,404.8C58.7,404.8,58.8,404.8,58.8,404.8z"/>
</g>
<path class="st4" d="M92.1,406.9c3.1-0.5,6.2-1.2,9.2-2.1c0,0,0,0,0,0c3-0.9,6-2.1,8.8-3.5c0.6-0.3,1.2-0.6,1.8-0.9
	c2.8-1.4,5.5-2.9,8.1-4.6V376c0-22.1-17.9-40-40-40s-40,17.9-40,40v19.9c2.6,1.7,5.3,3.2,8.1,4.6c0.6,0.3,1.2,0.6,1.8,0.9
	c2.9,1.3,5.8,2.5,8.8,3.5c0,0,0,0,0,0c3,0.9,6,1.6,9.2,2.1c0.8,0.1,1.6,0.2,2.3,0.4c3.2,0.4,6.4,0.7,9.7,0.7s6.5-0.3,9.7-0.7
	C90.5,407.2,91.3,407,92.1,406.9z"/>
<g>
	<circle class="st0" cx="176" cy="456" r="16"/>
	<circle class="st0" cx="24" cy="24" r="16"/>
	<circle class="st0" cx="440" cy="168" r="32"/>
	<circle class="st0" cx="456" cy="24" r="16"/>
</g>
<path class="st5" d="M433.5,32c3.3,9.3,12.1,16,22.5,16c13.2,0,24-10.8,24-24S469.2,0,456,0c-10.4,0-19.2,6.7-22.5,16H336
	c-2.1,0-4.2,0.8-5.7,2.3l-12.9,12.9C297.3,12,270,0,240,0c-59.1,0-107.5,46-111.6,104H61.2L35.1,45.2c7.7-4,12.9-12,12.9-21.2
	C48,10.8,37.2,0,24,0S0,10.8,0,24c0,11.3,7.9,20.8,18.5,23.3l30.2,68c1.3,2.9,4.1,4.8,7.3,4.8h72.4c1.9,26.9,13.3,51.1,30.9,69.4
	L91.7,257c-3.8-0.6-7.7-1-11.7-1c-44.1,0-80,35.9-80,80c0,27.6,14.1,52,35.4,66.4c0.1,0,0.1,0.1,0.2,0.1c0.3,0.2,0.7,0.4,1,0.6
	c2.5,1.6,5.2,3.1,7.9,4.5c0.9,0.4,1.7,0.8,2.6,1.2c3.1,1.4,6.2,2.7,9.5,3.7c0.4,0.1,0.8,0.2,1.2,0.3c3,0.9,6,1.5,9.1,2
	c0.9,0.2,1.8,0.3,2.7,0.4c0.8,0.1,1.7,0.3,2.5,0.4V456c0,4.4,3.6,8,8,8h73.5c3.3,9.3,12.1,16,22.5,16c13.2,0,24-10.8,24-24
	s-10.8-24-24-24c-10.4,0-19.2,6.7-22.5,16H88v-32.4c0.8-0.1,1.7-0.3,2.5-0.4c0.9-0.1,1.8-0.3,2.7-0.4c3.1-0.5,6.1-1.2,9.1-2
	c0.4-0.1,0.8-0.2,1.2-0.3c3.3-1,6.4-2.3,9.5-3.7c0.9-0.4,1.7-0.8,2.6-1.2c2.7-1.4,5.4-2.8,7.9-4.5c0.3-0.2,0.7-0.4,1-0.6
	c0.1,0,0.1-0.1,0.2-0.1C145.9,388,160,363.6,160,336c0-33.7-20.9-62.5-50.4-74.3l61.5-61.5c0.8,0.6,1.6,1.2,2.4,1.7
	c1.6,1.2,3.2,2.4,4.9,3.5c1.6,1.1,3.4,2.1,5,3.1c1.6,0.9,3.1,1.8,4.7,2.7c2.5,1.3,5,2.6,7.6,3.7c0.9,0.4,1.8,0.7,2.6,1
	c2.3,0.9,4.7,1.8,7.1,2.6c1,0.3,2,0.6,3,0.9c2.4,0.7,4.7,1.3,7.1,1.8c1.1,0.2,2.1,0.5,3.2,0.7c2.5,0.5,5,0.8,7.5,1.1
	c1,0.1,2,0.3,3,0.4c3.5,0.3,7,0.5,10.6,0.5s7.1-0.2,10.6-0.5c1-0.1,2-0.2,3-0.4c2.5-0.3,5-0.7,7.5-1.1c1.1-0.2,2.1-0.4,3.2-0.7
	c2.4-0.5,4.8-1.2,7.1-1.8c1-0.3,2-0.6,3-0.9c2.4-0.8,4.8-1.7,7.1-2.6c0.9-0.4,1.8-0.7,2.6-1c2.6-1.1,5.1-2.4,7.7-3.7
	c1.6-0.8,3.1-1.7,4.7-2.7c1.7-1,3.4-2,5.1-3.1c1.7-1.1,3.3-2.3,4.9-3.5c0.8-0.6,1.6-1.1,2.4-1.7l56,56
	C304.6,257.8,256,307.3,256,368c0,35.7,16.8,67.5,42.9,88c0.1,0,0.1,0.1,0.1,0.2c0.8,0.6,1.7,1.2,2.5,1.8c1.6,1.2,3.2,2.4,4.9,3.5
	c1.6,1.1,3.4,2.1,5,3.1c1.6,0.9,3.1,1.8,4.7,2.7c2.5,1.3,5,2.6,7.6,3.7c0.9,0.4,1.8,0.7,2.6,1c2.3,0.9,4.7,1.8,7.1,2.6
	c1,0.3,2,0.6,3,0.9c2.4,0.7,4.7,1.3,7.1,1.8c1.1,0.2,2.1,0.5,3.2,0.7c2.5,0.5,5,0.8,7.5,1.1c1,0.1,2,0.3,3,0.4
	c3.5,0.3,7,0.6,10.6,0.6s7.1-0.2,10.6-0.5c1-0.1,2-0.2,3-0.4c2.5-0.3,5-0.7,7.5-1.1c1.1-0.2,2.1-0.4,3.2-0.7
	c2.4-0.5,4.8-1.2,7.1-1.8c1-0.3,2-0.6,3-0.9c2.4-0.8,4.8-1.7,7.1-2.6c0.9-0.4,1.8-0.7,2.6-1c2.6-1.1,5.1-2.4,7.7-3.7
	c1.6-0.8,3.1-1.7,4.7-2.7c1.7-1,3.4-2,5.1-3.1c1.7-1.1,3.3-2.3,4.9-3.5c0.8-0.6,1.7-1.1,2.5-1.8c0.1,0,0.1-0.1,0.1-0.2
	c26.1-20.5,42.9-52.3,42.9-88c0-54.4-39-99.9-90.6-109.9l-68.7-68.7c17.6-18.3,28.9-42.6,30.9-69.4H432v8.8
	c-18.2,3.7-32,19.9-32,39.2c0,22.1,17.9,40,40,40s40-17.9,40-40c0-19.3-13.8-35.5-32-39.2V112c0-4.4-3.6-8-8-8h-88.4
	c-1.6-22.9-10.1-43.8-23.4-60.8L339.3,32H433.5z M456,16c4.4,0,8,3.6,8,8s-3.6,8-8,8s-8-3.6-8-8S451.6,16,456,16z M24,16
	c4.4,0,8,3.6,8,8s-3.6,8-8,8s-8-3.6-8-8S19.6,16,24,16z M176,448c4.4,0,8,3.6,8,8s-3.6,8-8,8s-8-3.6-8-8S171.6,448,176,448z M64,312
	c0-8.8,7.2-16,16-16s16,7.2,16,16s-7.2,16-16,16S64,320.8,64,312z M80,344c17.6,0,32,14.4,32,32v15.3c-0.2,0.1-0.5,0.3-0.7,0.4
	c-19.1,10.7-43.5,10.7-62.6,0c-0.2-0.1-0.5-0.3-0.7-0.4V376C48,358.4,62.4,344,80,344z M144,336c0,16.2-6.1,30.9-16,42.2V376
	c0-18.1-10-33.8-24.9-42c5.5-5.7,8.9-13.5,8.9-22c0-17.6-14.4-32-32-32s-32,14.4-32,32c0,8.5,3.4,16.2,8.9,22
	C42,342.2,32,357.9,32,376v2.2c-9.9-11.3-16-26-16-42.2c0-35.3,28.7-64,64-64S144,300.7,144,336z M464,168c0,13.2-10.8,24-24,24
	s-24-10.8-24-24s10.8-24,24-24S464,154.8,464,168z M251,75.2l28.6,17.2c-3.2,19.6-27.3,35.7-39.6,35.7c-11.6,0-33.7-14.3-38.9-32.4
	C214.8,94.5,239.5,90.3,251,75.2z M200.4,79.5C202.6,52.7,215.2,40,240,40c22.7,0,35.2,10.7,38.8,33.1l-26.7-16
	c-2.1-1.2-4.6-1.5-6.9-0.6c-2.3,0.8-4,2.7-4.8,5C236.4,73.6,214.5,78.2,200.4,79.5z M240,157.5l6.6,16.5l-6.6,6.6l-6.6-6.6
	L240,157.5z M228.2,144l-11.6,29c-1.2,3-0.5,6.4,1.8,8.6l16,16c1.6,1.6,3.6,2.3,5.6,2.3s4.1-0.8,5.7-2.3l16-16
	c2.3-2.3,3-5.7,1.8-8.6l-11.6-29h17.8c5.2,0,10.3,1.5,14.7,4.4c7.4,4.9,11.8,13.1,11.8,22v19.4c-1.8,1.3-3.5,2.5-5.3,3.6
	c-0.6,0.4-1.2,0.7-1.7,1.1c-1.9,1.1-3.9,2.2-5.9,3.2c-0.7,0.4-1.4,0.7-2.1,1c-1.9,0.9-3.9,1.8-5.8,2.6c-0.9,0.3-1.8,0.6-2.6,1
	c-1.9,0.7-3.8,1.3-5.7,1.9c-1.1,0.3-2.3,0.6-3.4,0.9c-1.6,0.4-3.3,0.8-4.9,1.2c-0.2,0-0.4,0.1-0.5,0.1c-1.5,0.3-3,0.5-4.5,0.7
	c-1.1,0.2-2.1,0.3-3.2,0.4c-0.4,0-0.8,0.1-1.2,0.1c-3,0.3-5.9,0.4-8.9,0.4s-6-0.2-8.9-0.5c-0.4,0-0.8-0.1-1.2-0.1
	c-1.1-0.1-2.2-0.3-3.2-0.4c-1.5-0.2-3-0.4-4.5-0.7c-0.2,0-0.4-0.1-0.5-0.1c-1.6-0.3-3.3-0.7-4.9-1.2c-1.1-0.3-2.3-0.6-3.4-0.9
	c-1.9-0.6-3.8-1.2-5.7-1.9c-0.9-0.3-1.8-0.6-2.6-1c-2-0.8-3.9-1.6-5.8-2.6c-0.7-0.3-1.4-0.7-2.1-1c-2-1-4-2.1-5.9-3.2
	c-0.6-0.3-1.2-0.7-1.7-1.1c-1.8-1.1-3.6-2.4-5.3-3.6v-19.4c0-8.9,4.4-17.1,11.8-22c4.4-2.9,9.4-4.4,14.6-4.4L228.2,144L228.2,144z
	 M379,331.2l28.6,17.2c-3.2,19.6-27.3,35.7-39.6,35.7c-11.6,0-33.7-14.3-38.9-32.4C342.8,350.5,367.5,346.3,379,331.2z M328.4,335.5
	c2.1-26.8,14.8-39.5,39.6-39.5c22.7,0,35.2,10.7,38.8,33.1l-26.7-16c-2.1-1.2-4.6-1.5-6.9-0.6c-2.3,0.8-4,2.7-4.8,5
	C364.4,329.6,342.5,334.2,328.4,335.5z M368,413.5l6.6,16.5l-6.6,6.6l-6.6-6.6L368,413.5z M356.2,400l-11.6,29
	c-1.2,3-0.5,6.4,1.8,8.6l16,16c1.6,1.6,3.6,2.3,5.6,2.3s4.1-0.8,5.7-2.3l16-16c2.3-2.3,3-5.7,1.8-8.6l-11.6-29h17.8
	c5.2,0,10.3,1.5,14.7,4.4c7.4,4.9,11.8,13.1,11.8,22v19.4c-0.2,0.2-0.4,0.3-0.7,0.5c-1.3,1-2.7,1.8-4.1,2.7c-1.1,0.7-2.2,1.4-3.3,2
	c-1.2,0.7-2.4,1.4-3.6,2c-1.6,0.9-3.3,1.7-5,2.4c-0.8,0.4-1.6,0.8-2.4,1.1c-2.6,1.1-5.3,2.1-8,3c-0.5,0.2-1,0.3-1.5,0.4
	c-2.3,0.7-4.6,1.3-7,1.8c-0.8,0.2-1.6,0.3-2.4,0.5c-2.1,0.4-4.3,0.7-6.5,1c-0.8,0.1-1.6,0.2-2.5,0.3c-3,0.3-5.9,0.5-8.9,0.5
	s-6-0.2-8.9-0.5c-0.8-0.1-1.7-0.2-2.5-0.3c-2.2-0.3-4.4-0.6-6.5-1c-0.8-0.2-1.6-0.3-2.4-0.5c-2.4-0.5-4.7-1.1-7-1.8
	c-0.5-0.1-1-0.3-1.5-0.4c-2.7-0.9-5.4-1.9-8-3c-0.8-0.3-1.6-0.7-2.4-1.1c-1.7-0.8-3.4-1.6-5-2.4c-1.2-0.6-2.4-1.3-3.6-2
	c-1.1-0.6-2.2-1.3-3.3-2c-1.4-0.9-2.8-1.8-4.1-2.7c-0.2-0.2-0.4-0.3-0.7-0.5v-19.4c0-8.9,4.4-17.1,11.8-22c4.4-2.9,9.4-4.4,14.6-4.4
	H356.2z M464,368c0,24.3-9.1,46.4-24,63.3v-4.9c0-14.2-7.1-27.4-18.9-35.3c-5.5-3.7-11.7-5.9-18.2-6.7
	c11.9-10.3,21.1-24.7,21.1-40.4c0-52.9-30.5-64-56-64s-56,11.1-56,64c0,15.7,9.2,30.1,21.1,40.4c-6.5,0.8-12.7,3.1-18.2,6.7
	c-11.8,7.9-18.9,21.1-18.9,35.3v4.9c-14.9-16.9-24-39-24-63.3c0-52.9,43.1-96,96-96S464,315.1,464,368z M312,175.3v-4.9
	c0-14.2-7.1-27.4-18.9-35.3c-5.5-3.7-11.7-5.9-18.2-6.7C286.8,118.1,296,103.7,296,88c0-52.9-30.5-64-56-64s-56,11.1-56,64
	c0,15.7,9.2,30.1,21.1,40.4c-6.5,0.8-12.7,3.1-18.2,6.7c-11.8,7.9-18.9,21.1-18.9,35.3v4.9c-14.9-16.9-24-39-24-63.3
	c0-52.9,43.1-96,96-96s96,43.1,96,96C336,136.3,326.9,158.4,312,175.3z"/>
</svg>
