<?xml version="1.0" encoding="utf-8"?>
<!-- Generator: Adobe Illustrator 22.0.1, SVG Export Plug-In . SVG Version: 6.00 Build 0)  -->
<svg version="1.1" id="Capa_1" xmlns="http://www.w3.org/2000/svg" xmlns:xlink="http://www.w3.org/1999/xlink" x="0px" y="0px"
	 viewBox="0 0 480 480" style="enable-background:new 0 0 480 480;" xml:space="preserve">
<style type="text/css">
	.st0{fill:#0060FF;}
	.st1{fill:#B3D5E4;}
	.st2{fill:#D45B5B;}
	.st3{fill:#FFFFFF;}
	.st4{fill:#23374E;}
</style>
<g>
	<path class="st0" d="M372.3,263.6c0.5-0.2,1-0.5,1.5-0.8C373.3,263.1,372.8,263.3,372.3,263.6z"/>
	<path class="st0" d="M378.2,260.4c0.4-0.2,0.7-0.5,1.1-0.7C379,259.9,378.6,260.1,378.2,260.4z"/>
	<path class="st0" d="M366.1,266.2c0.6-0.2,1.1-0.4,1.7-0.7C367.3,265.8,366.7,266,366.1,266.2z"/>
	<path class="st0" d="M347.9,271.1c0.3,0,0.6-0.1,0.9-0.1C348.5,271,348.2,271,347.9,271.1z"/>
	<path class="st0" d="M292.7,259.7c0.4,0.2,0.7,0.5,1.1,0.7C293.4,260.1,293,259.9,292.7,259.7z"/>
	<path class="st0" d="M316.8,269.7c0.5,0.1,1,0.2,1.5,0.3C317.8,269.9,317.3,269.8,316.8,269.7z"/>
	<path class="st0" d="M323.3,271c0.3,0,0.6,0.1,0.9,0.1C323.8,271,323.6,271,323.3,271z"/>
	<path class="st0" d="M353.7,270c0.5-0.1,1-0.2,1.5-0.3C354.7,269.8,354.2,269.9,353.7,270z"/>
	<path class="st0" d="M304.2,265.6c0.6,0.2,1.1,0.5,1.7,0.7C305.3,266,304.7,265.8,304.2,265.6z"/>
	<path class="st0" d="M359.9,268.4c0.6-0.2,1.1-0.3,1.7-0.5C361,268.1,360.5,268.2,359.9,268.4z"/>
	<path class="st0" d="M298.2,262.8c0.5,0.3,1,0.5,1.5,0.8C299.2,263.3,298.7,263.1,298.2,262.8z"/>
	<path class="st0" d="M310.4,267.9c0.6,0.2,1.1,0.3,1.7,0.5C311.5,268.2,311,268.1,310.4,267.9z"/>
	<path class="st0" d="M264,64v32h18.4c1.1,3.7,2.6,7.3,4.4,10.6l-13,13l22.6,22.6l13-13c3.4,1.8,6.9,3.3,10.6,4.4V152h32v-18.4
		c3.7-1.1,7.3-2.6,10.6-4.4l13,13l22.6-22.6l-13-13c1.8-3.4,3.3-6.9,4.4-10.6H408V64h-18.4c-1.1-3.7-2.6-7.3-4.4-10.6l13-13
		l-22.6-22.6l-13,13c-3.4-1.8-6.9-3.3-10.6-4.4V8h-32v18.4c-3.7,1.1-7.3,2.6-10.6,4.4l-13-13l-22.6,22.6l13,13
		c-1.8,3.4-3.3,6.9-4.4,10.6H264z M336,48c17.7,0,32,14.3,32,32s-14.3,32-32,32s-32-14.3-32-32S318.3,48,336,48z"/>
</g>
<circle class="st1" cx="336" cy="80" r="32"/>
<g>
	<polygon class="st0" points="288,312 288,296 216,320 200,472 288,472 288,352 	"/>
	<polygon class="st0" points="384,296 384,312 384,352 384,472 472,472 456,320 	"/>
</g>
<g>
	<polygon class="st1" points="288,352 336,336 288,312 	"/>
	<polygon class="st1" points="384,352 384,312 336,336 	"/>
</g>
<g>
	<path class="st2" d="M299.7,263.6c1.5,0.7,3,1.4,4.5,2C302.7,265,301.2,264.3,299.7,263.6z"/>
	<path class="st2" d="M293.8,260.4c1.5,0.9,3,1.7,4.5,2.4C296.7,262,295.2,261.2,293.8,260.4z"/>
	<path class="st2" d="M288,256.6L288,256.6c1.5,1.1,3.1,2.1,4.7,3C291.1,258.7,289.5,257.7,288,256.6z"/>
	<path class="st2" d="M355.2,269.7c1.6-0.4,3.1-0.8,4.7-1.3C358.4,268.9,356.8,269.3,355.2,269.7z"/>
	<path class="st2" d="M361.6,267.9c1.5-0.5,3-1,4.5-1.6C364.6,266.8,363.1,267.4,361.6,267.9z"/>
	<path class="st2" d="M347.9,271.1c-7.9,1.1-15.9,1.1-23.7,0C332,272.2,340,272.2,347.9,271.1z"/>
	<path class="st2" d="M384,256.6c-1.5,1.1-3.1,2.1-4.7,3C380.9,258.7,382.5,257.7,384,256.6L384,256.6z"/>
	<path class="st2" d="M348.7,271c1.7-0.3,3.3-0.6,5-1C352.1,270.4,350.4,270.7,348.7,271z"/>
	<path class="st2" d="M367.8,265.6c1.5-0.6,3-1.3,4.5-2C370.8,264.3,369.3,265,367.8,265.6z"/>
	<path class="st2" d="M373.8,262.8c1.5-0.8,3-1.6,4.5-2.4C376.8,261.2,375.3,262,373.8,262.8z"/>
</g>
<path class="st3" d="M336,336l48-24v-16v-39.4c-1.5,1.1-3.1,2.1-4.7,3c-0.4,0.2-0.7,0.5-1.1,0.7c-1.5,0.9-3,1.7-4.5,2.4
	c-0.5,0.3-1,0.5-1.5,0.8c-1.5,0.7-3,1.4-4.5,2c-0.6,0.2-1.1,0.5-1.7,0.7c-1.5,0.6-3,1.1-4.5,1.6c-0.6,0.2-1.1,0.3-1.7,0.5
	c-1.6,0.5-3.1,0.9-4.7,1.3c-0.5,0.1-1,0.2-1.5,0.3c-1.7,0.4-3.3,0.7-5,1c-0.3,0-0.6,0.1-0.9,0.1c-7.9,1.1-15.9,1.1-23.7,0
	c-0.3,0-0.6-0.1-0.9-0.1c-1.7-0.3-3.3-0.6-5-1c-0.5-0.1-1-0.2-1.5-0.3c-1.6-0.4-3.1-0.8-4.7-1.3c-0.6-0.2-1.1-0.3-1.7-0.5
	c-1.5-0.5-3-1-4.5-1.6c-0.6-0.2-1.1-0.4-1.7-0.7c-1.5-0.6-3-1.3-4.5-2c-0.5-0.2-1-0.5-1.5-0.8c-1.5-0.8-3-1.6-4.5-2.4
	c-0.4-0.2-0.7-0.5-1.1-0.7c-1.6-1-3.1-2-4.7-3V296v16L336,336z"/>
<g>
	<path class="st2" d="M312.1,268.4c1.6,0.5,3.1,0.9,4.7,1.3C315.2,269.3,313.6,268.9,312.1,268.4z"/>
	<path class="st2" d="M305.9,266.2c1.5,0.6,3,1.1,4.5,1.6C308.9,267.4,307.4,266.8,305.9,266.2z"/>
	<path class="st2" d="M318.3,270c1.7,0.4,3.3,0.7,5,1C321.6,270.7,319.9,270.4,318.3,270z"/>
</g>
<g>
	<polygon class="st1" points="336,336 360,424 336,472 384,472 384,352 	"/>
	<polygon class="st1" points="336,336 288,352 288,472 336,472 312,424 	"/>
</g>
<g>
	<polygon class="st0" points="336,336 312,424 336,472 360,424 	"/>
	<path class="st0" d="M64,154.4c-3.7,1.1-7.3,2.6-10.6,4.4l-13-13l-22.6,22.6l13,13c-1.8,3.4-3.3,6.9-4.4,10.6H8v32h18.4
		c1.1,3.7,2.6,7.3,4.4,10.6l-13,13l22.6,22.6l13-13c3.4,1.8,6.9,3.3,10.6,4.4V280h32v-18.4c3.7-1.1,7.3-2.6,10.6-4.4l13,13
		l22.6-22.6l-13-13c1.8-3.4,3.3-6.9,4.4-10.6H152v-32h-18.4c-1.1-3.7-2.6-7.3-4.4-10.6l13-13l-22.6-22.6l-13,13
		c-3.4-1.8-6.9-3.3-10.6-4.4V136H64V154.4z M112,208c0,17.7-14.3,32-32,32s-32-14.3-32-32s14.3-32,32-32S112,190.3,112,208z"/>
</g>
<circle class="st1" cx="80" cy="208" r="32"/>
<path class="st3" d="M432,160H240c0,0,8,112,96,112S432,160,432,160z"/>
<g>
	<path class="st4" d="M336,120c22.1,0,40-17.9,40-40s-17.9-40-40-40s-40,17.9-40,40S313.9,120,336,120z M336,56
		c13.2,0,24,10.8,24,24s-10.8,24-24,24s-24-10.8-24-24S322.8,56,336,56z"/>
	<path class="st4" d="M264,56c-4.4,0-8,3.6-8,8v32c0,4.4,3.6,8,8,8h12.7c0.1,0.3,0.3,0.7,0.4,1l-9,9c-1.5,1.5-2.3,3.5-2.3,5.7
		c0,2.1,0.8,4.2,2.3,5.7l22.6,22.6c3,3,8.3,3,11.3,0l9-9c0.3,0.1,0.7,0.3,1,0.4V152c0,4.4,3.6,8,8,8h32c4.4,0,8-3.6,8-8v-12.7
		c0.3-0.1,0.7-0.3,1-0.4l9,9c1.5,1.5,3.5,2.3,5.7,2.3s4.2-0.8,5.7-2.3l22.6-22.6c1.5-1.5,2.3-3.5,2.3-5.7c0-2.1-0.8-4.2-2.3-5.7
		l-9-9c0.1-0.3,0.3-0.7,0.4-1H408c4.4,0,8-3.6,8-8V64c0-4.4-3.6-8-8-8h-12.7c-0.1-0.3-0.3-0.7-0.4-1l9-9c1.5-1.5,2.3-3.5,2.3-5.7
		s-0.8-4.2-2.3-5.7l-22.6-22.6c-3-3-8.3-3-11.3,0l-9,9c-0.3-0.1-0.7-0.3-1-0.4V8c0-4.4-3.6-8-8-8h-32c-4.4,0-8,3.6-8,8v12.7
		c-0.3,0.1-0.7,0.3-1,0.4l-9-9c-1.5-1.5-3.5-2.3-5.7-2.3s-4.2,0.8-5.7,2.3l-22.6,22.6c-1.5,1.5-2.3,3.5-2.3,5.7s0.8,4.2,2.3,5.7l9,9
		c-0.1,0.3-0.3,0.7-0.4,1H264z M282.4,72c3.5,0,6.7-2.3,7.7-5.7c1-3.2,2.2-6.3,3.8-9.1c1.7-3.1,1.1-7-1.4-9.5l-7.3-7.3l11.3-11.3
		l7.3,7.3c2.5,2.5,6.4,3.1,9.5,1.4c2.8-1.5,5.9-2.8,9.1-3.8c3.4-1,5.7-4.1,5.7-7.7V16h16v10.4c0,3.5,2.3,6.7,5.7,7.7
		c3.3,1,6.3,2.2,9.1,3.8c3.1,1.7,7,1.1,9.5-1.4l7.3-7.3l11.3,11.3l-7.3,7.3c-2.5,2.5-3.1,6.4-1.4,9.5c1.5,2.8,2.8,5.9,3.8,9.1
		c1,3.4,4.1,5.7,7.7,5.7H400v16h-10.4c-3.5,0-6.7,2.3-7.7,5.7c-1,3.2-2.2,6.3-3.8,9.1c-1.7,3.1-1.1,7,1.4,9.5l7.3,7.3l-11.3,11.3
		l-7.3-7.3c-2.5-2.5-6.4-3.1-9.5-1.4c-2.8,1.5-5.9,2.8-9.1,3.8c-3.4,1-5.7,4.1-5.7,7.7V144h-16v-10.4c0-3.5-2.3-6.7-5.7-7.7
		c-3.3-1-6.3-2.2-9.1-3.8c-3.1-1.7-7-1.1-9.5,1.4l-7.3,7.3l-11.3-11.3l7.3-7.3c2.5-2.5,3.1-6.4,1.4-9.5c-1.5-2.8-2.8-5.9-3.8-9.1
		c-1-3.4-4.1-5.7-7.7-5.7H272V72H282.4z"/>
	<path class="st4" d="M234.3,154.4c-1.5,1.5-2.3,3.6-2.3,5.7c0.5,38.4,17.7,75.3,45.9,98.9c0.7,0.6,1.4,1.1,2.1,1.6v29.7l-66.5,22.2
		c-3,1-5.1,3.6-5.4,6.8l-16,152c-0.2,2.2,0.5,4.5,2,6.2s3.7,2.6,5.9,2.6h88h96h88c2.3,0,4.4-1,5.9-2.6s2.2-3.9,2-6.2l-16-152
		c-0.3-3.1-2.4-5.8-5.4-6.8L392,290.2v-29.7c0.7-0.5,1.4-1,2.1-1.6c28.7-24,45.9-61,45.9-99c0-4.4-3.6-8-8-8h-24v16h15.7
		c-2.2,30.5-16.7,59.4-39.8,78.7c-1.5,1.2-3,2.3-4.5,3.4c0,0,0,0,0,0c-3.1,2.2-6.4,4.2-9.8,5.9c-0.2,0.1-0.4,0.2-0.6,0.3
		c-3.3,1.6-6.7,3-10.2,4.1c-0.2,0.1-0.5,0.2-0.7,0.2c-3.5,1.1-7.1,1.9-10.7,2.5c-0.1,0-0.2,0-0.3,0c-7.4,1.1-14.9,1.1-22.4,0
		c-0.1,0-0.2,0-0.3,0c-3.6-0.6-7.2-1.4-10.7-2.5c-0.2-0.1-0.5-0.1-0.7-0.2c-3.5-1.1-6.8-2.5-10.2-4.1c-0.2-0.1-0.4-0.2-0.6-0.3
		c-3.4-1.7-6.6-3.6-9.8-5.9c0,0,0,0,0,0c-1.5-1.1-3-2.2-4.5-3.4C265.8,228,251,198.5,248.4,168H264v-16h-24
		C237.9,152,235.8,152.9,234.3,154.4z M351.5,423.2l-15.5,31l-15.5-31l15.5-56.8L351.5,423.2z M376,340.9l-19.1-6.4l19.1-9.6V340.9z
		 M296,340.9v-16l19.1,9.6L296,340.9z M223.4,326l56.6-18.9v4.9v40v112h-71.1L223.4,326z M296,357.8l28.4-9.4l-20.1,73.6
		c-0.5,1.9-0.3,3.9,0.6,5.7l18.2,36.4H296V357.8z M348.9,464l18.2-36.4c0.9-1.8,1.1-3.8,0.6-5.7l-20.1-73.6l28.4,9.5V464H348.9z
		 M448.6,326l14.5,138H392V352v-40v-4.9L448.6,326z M376,270.7V296v11.1l-40,20l-40-20V296v-25.3c0.1,0.1,0.2,0.1,0.4,0.2
		c6,2.9,12.3,5.2,18.7,6.7c0.4,0.1,0.9,0.2,1.3,0.3c2.8,0.6,5.6,1.1,8.5,1.5c0.5,0.1,0.9,0.1,1.4,0.2c3.2,0.3,6.5,0.6,9.7,0.6
		s6.5-0.2,9.7-0.6c0.5,0,0.9-0.1,1.4-0.2c2.8-0.4,5.7-0.8,8.5-1.5c0.4-0.1,0.9-0.2,1.3-0.3c6.4-1.5,12.7-3.7,18.7-6.7
		C375.8,270.8,375.9,270.7,376,270.7z"/>
	<path class="st4" d="M80,248c22.1,0,40-17.9,40-40s-17.9-40-40-40s-40,17.9-40,40S57.9,248,80,248z M80,184c13.2,0,24,10.8,24,24
		s-10.8,24-24,24s-24-10.8-24-24S66.8,184,80,184z"/>
	<path class="st4" d="M8,232h12.7c0.1,0.3,0.3,0.7,0.4,1l-9,9c-1.5,1.5-2.3,3.5-2.3,5.7c0,2.1,0.8,4.2,2.3,5.7l22.6,22.6
		c3,3,8.3,3,11.3,0l9-9c0.3,0.1,0.7,0.3,1,0.4V280c0,4.4,3.6,8,8,8h32c4.4,0,8-3.6,8-8v-12.7c0.3-0.1,0.7-0.3,1-0.4l9,9
		c1.5,1.5,3.5,2.3,5.7,2.3s4.2-0.8,5.7-2.3l22.6-22.6c1.5-1.5,2.3-3.5,2.3-5.7c0-2.1-0.8-4.2-2.3-5.7l-9-9c0.1-0.3,0.3-0.7,0.4-1
		H152c4.4,0,8-3.6,8-8v-32c0-4.4-3.6-8-8-8h-12.7c-0.1-0.3-0.3-0.7-0.4-1l9-9c1.5-1.5,2.3-3.5,2.3-5.7s-0.8-4.2-2.3-5.7l-22.6-22.6
		c-3-3-8.3-3-11.3,0l-9,9c-0.3-0.1-0.7-0.3-1-0.4V136c0-4.4-3.6-8-8-8H64c-4.4,0-8,3.6-8,8v12.7c-0.3,0.1-0.7,0.3-1,0.4l-9-9
		c-1.5-1.5-3.5-2.3-5.7-2.3s-4.2,0.8-5.7,2.3l-22.6,22.6c-1.5,1.5-2.3,3.5-2.3,5.7s0.8,4.2,2.3,5.7l9,9c-0.1,0.3-0.3,0.7-0.4,1H8
		c-4.4,0-8,3.6-8,8v32C0,228.4,3.6,232,8,232z M16,200h10.4c3.5,0,6.7-2.3,7.7-5.7c1-3.2,2.2-6.3,3.8-9.1c1.7-3.1,1.1-7-1.4-9.5
		l-7.3-7.3l11.3-11.3l7.3,7.3c2.5,2.5,6.4,3.1,9.5,1.4c2.8-1.5,5.9-2.8,9.1-3.8c3.4-1,5.7-4.1,5.7-7.7V144h16v10.4
		c0,3.5,2.3,6.7,5.7,7.7c3.3,1,6.3,2.2,9.1,3.8c3.1,1.7,7,1.1,9.5-1.4l7.3-7.3l11.3,11.3l-7.3,7.3c-2.5,2.5-3.1,6.4-1.4,9.5
		c1.5,2.8,2.8,5.9,3.8,9.1c1,3.4,4.1,5.7,7.7,5.7H144v16h-10.4c-3.5,0-6.7,2.3-7.7,5.7c-1,3.2-2.2,6.3-3.8,9.1
		c-1.7,3.1-1.1,7,1.4,9.5l7.3,7.3l-11.3,11.3l-7.3-7.3c-2.5-2.5-6.4-3.1-9.5-1.4c-2.8,1.5-5.9,2.8-9.1,3.8c-3.4,1-5.7,4.1-5.7,7.7
		V272H72v-10.4c0-3.5-2.3-6.7-5.7-7.7c-3.3-1-6.3-2.2-9.1-3.8c-3.1-1.7-7-1.1-9.5,1.4l-7.3,7.3l-11.3-11.3l7.3-7.3
		c2.5-2.5,3.1-6.4,1.4-9.5c-1.5-2.8-2.8-5.9-3.8-9.1c-1-3.4-4.1-5.7-7.7-5.7H16V200z"/>
	<path class="st4" d="M268.5,264.5l-9-13.2C239.6,264.8,216.2,272,192,272c-10.2,0-20.3-1.3-30-3.8l-4,15.5
		c11.1,2.8,22.5,4.3,34,4.3C219.5,288,245.9,279.9,268.5,264.5z"/>
	<path class="st4" d="M62.8,109.5l15.2,5C94.2,65.2,140,32,192,32c15.6,0,30.7,2.9,45,8.7l6-14.8c-16.2-6.6-33.3-9.9-51-9.9
		C133.1,16,81.2,53.6,62.8,109.5z"/>
	<path class="st4" d="M142.5,337.5c5.3,1.4,10.8,2.6,16.3,3.6l2.8-15.8c-5-0.9-10-2-14.9-3.3L142.5,337.5z"/>
	<path class="st4" d="M83.4,310.4c4.1,2.8,8.4,5.6,12.8,8.1l8-13.9c-4-2.3-8-4.8-11.8-7.4L83.4,310.4z"/>
	<path class="st4" d="M192,344v-16c-5.1,0-10.2-0.2-15.3-0.7l-1.4,15.9C180.9,343.8,186.5,344,192,344z"/>
	<path class="st4" d="M111.1,326.2c5,2.3,10.2,4.5,15.4,6.4l5.5-15c-4.8-1.7-9.6-3.7-14.1-5.8L111.1,326.2z"/>
	<path class="st4" d="M210.6,56.5L209,72.4c4.4,0.4,8.8,1.2,13.1,2.3l4-15.5C220.9,58,215.7,57.1,210.6,56.5z"/>
	<path class="st4" d="M193.3,56.2c-5.8,0.4-11.5,1.2-17.1,2.5l3.7,15.6c4.7-1.1,9.6-1.8,14.5-2.1L193.3,56.2z"/>
	<path class="st4" d="M144.3,72.1l8.6,13.5c4.1-2.6,8.5-4.9,13-6.8l-6.2-14.8C154.4,66.3,149.2,69,144.3,72.1z"/>
	<path class="st4" d="M141.2,94.5l-10.7-11.9c-4.3,3.9-8.3,8.1-11.9,12.6l12.5,10C134.2,101.3,137.6,97.8,141.2,94.5z"/>
	<path class="st4" d="M101.9,125.3l15.1,5.3c1.6-4.6,3.6-9.1,6-13.4l-14-7.8C106.2,114.6,103.8,119.9,101.9,125.3z"/>
</g>
</svg>
